<?xml version="1.0" encoding="utf-8"?>
<!-- Generator: Adobe Illustrator 19.0.0, SVG Export Plug-In . SVG Version: 6.00 Build 0)  -->
<svg version="1.1" xmlns="http://www.w3.org/2000/svg" xmlns:xlink="http://www.w3.org/1999/xlink" x="0px" y="0px"
	 viewBox="0 0 908.2 863.8" style="enable-background:new 0 0 908.2 863.8;" xml:space="preserve">
<style type="text/css">
	.st0{display:none;}
	.st1{fill:#008FC5;}
	.st2{fill:#00AEEF;}
</style>
<g id="background" class="st0">
</g>
<g id="Objects">
	<g>
		<path class="st1" d="M908.2,329.9l-335.1-16.3L454.1,0l-119,313.6L0,329.9l261.5,210.1l-88.1,323.7L454.1,680l280.7,183.8
			l-88.1-323.7L908.2,329.9z M625.9,711.2l-3.7-2.5l-168-110l-168,110l-3.7,2.5l53.1-195.2l0.8-3L181.8,389l-5.6-4.5l203.2-9.9
			l1.9-0.1l72.9-192l72.9,192l1.9,0.1l203.2,9.9l-5.6,4.5L572,513.1l0.8,3L625.9,711.2z"/>
		<polygon class="st2" points="573.2,313.6 528.9,374.6 527,374.5 454.1,182.5 454.1,0 		"/>
		<polygon class="st2" points="176.2,384.5 181.8,389 0,329.9 335.1,313.6 379.4,374.6 		"/>
		<polygon class="st2" points="282.3,711.2 286.1,708.8 173.5,863.8 261.5,540.1 335.4,516.1 		"/>
		<polygon class="st2" points="734.8,863.8 454.1,680 454.1,598.8 622.2,708.8 		"/>
		<polygon class="st2" points="908.2,329.9 646.7,540.1 572.8,516.1 572,513.1 726.4,389 		"/>
	</g>
</g>
</svg>
